<?xml version="1.0" encoding="UTF-8" standalone="no"?>
<!-- Created with Inkscape (http://www.inkscape.org/) -->

<svg
   xmlns:dc="http://purl.org/dc/elements/1.1/"
   xmlns:cc="http://creativecommons.org/ns#"
   xmlns:rdf="http://www.w3.org/1999/02/22-rdf-syntax-ns#"
   xmlns:svg="http://www.w3.org/2000/svg"
   xmlns="http://www.w3.org/2000/svg"
   xmlns:sodipodi="http://sodipodi.sourceforge.net/DTD/sodipodi-0.dtd"
   xmlns:inkscape="http://www.inkscape.org/namespaces/inkscape"
   version="1.1"
   id="svg177"
   width="512"
   height="512"
   viewBox="0 0 512 512"
   sodipodi:docname="certification-icon.svg"
   inkscape:version="0.92.3 (2405546, 2018-03-11)">
  <metadata
     id="metadata183">
    <rdf:RDF>
      <cc:Work
         rdf:about="">
        <dc:format>image/svg+xml</dc:format>
        <dc:type
           rdf:resource="http://purl.org/dc/dcmitype/StillImage" />
        <dc:title></dc:title>
      </cc:Work>
    </rdf:RDF>
  </metadata>
  <defs
     id="defs181" />
  <sodipodi:namedview
     pagecolor="#ffffff"
     bordercolor="#666666"
     borderopacity="1"
     objecttolerance="10"
     gridtolerance="10"
     guidetolerance="10"
     inkscape:pageopacity="0"
     inkscape:pageshadow="2"
     inkscape:window-width="1749"
     inkscape:window-height="952"
     id="namedview179"
     showgrid="false"
     inkscape:zoom="0.4609375"
     inkscape:cx="-100.88136"
     inkscape:cy="256"
     inkscape:window-x="0"
     inkscape:window-y="0"
     inkscape:window-maximized="0"
     inkscape:current-layer="svg177" />
  <path
     style="fill:#787878;stroke-width:1.28185546"
     d="m 160.72125,506.65359 c -2.49436,-1.35665 -6.29782,-8.3749 -15.99954,-29.52038 -6.99966,-15.25733 -13.32211,-28.23447 -14.04961,-28.83832 -0.743,-0.61661 -14.51783,0.005 -31.42952,1.42134 -20.798284,1.73999 -30.977624,2.12504 -32.923174,1.24497 -4.02064,-1.81847 -7.22501,-7.22657 -6.32445,-10.6746 0.41566,-1.59138 13.98173,-25.39001 30.14673,-52.88579 l 29.390514,-49.99231 5.20342,-0.39242 c 6.17909,-0.46535 6.09295,-0.68994 7.06109,18.41176 1.10156,21.73123 6.94027,33.6351 19.51508,39.78751 12.53517,6.13284 25.28965,4.25645 47.59201,-7.00198 9.37794,-4.7339 11.82599,-4.91808 14.52294,-1.09281 1.1028,1.56422 5.08601,7.29103 8.85167,12.7266 l 6.84675,9.88259 -8.41846,14.47254 c -47.07506,80.92927 -49.32473,84.40578 -54.54197,84.28255 -1.19444,-0.0272 -3.64417,-0.85235 -5.44348,-1.83125 z m 184.13369,-1.00169 c -2.76822,-2.47405 -50.12342,-81.54599 -55.50285,-92.67632 -1.86937,-3.86808 -1.79934,-4.03414 6.8782,-16.30523 5.38943,-7.62121 9.64514,-12.41201 11.04662,-12.43586 1.25386,-0.0208 5.86125,1.7694 10.23794,3.97888 22.30235,11.25843 35.057,13.13482 47.59208,7.00198 12.22535,-5.98139 18.22329,-18.05158 19.48941,-39.22005 1.05188,-17.58869 1.39161,-18.85119 5.27354,-19.59327 6.43492,-1.23022 2.48943,-6.96879 43.83348,63.75449 12.75681,21.82116 23.19354,40.75685 23.19354,42.07965 0,3.09199 -6.78463,9.90483 -9.8357,9.87645 -1.28809,-0.008 -15.32071,-1.13735 -31.18369,-2.50035 -22.43856,-1.92844 -29.1813,-2.13711 -30.37126,-0.93964 -0.84124,0.84651 -6.18753,11.82144 -11.88079,24.38891 -13.91154,30.71008 -14.7121,32.17163 -18.59355,33.94011 -4.7545,2.16627 -6.50202,1.93458 -10.17697,-1.34975 z m -96.2595,-94.09444 c -6.01454,-3.1573 -13.15331,-10.50779 -20.03673,-20.63114 -9.23619,-13.58344 -13.6828,-18.26687 -17.34366,-18.26687 -1.73018,0 -10.1787,3.27425 -18.77461,7.27605 -21.78082,10.14019 -32.08042,10.8718 -41.13482,2.92201 -6.08234,-5.34034 -8.34841,-12.9799 -9.80332,-33.04893 -0.681,-9.39537 -1.80681,-18.14521 -2.50225,-19.44402 -1.56429,-2.92348 -4.12934,-3.45581 -24.98471,-5.18551 -18.63382,-1.54534 -25.100524,-3.68807 -30.501454,-10.10677 -7.33006,-8.71144 -6.5543,-17.98375 3.34379,-39.96593 4.00077,-8.88567 7.274314,-17.57434 7.274314,-19.30865 0,-3.66445 -3.458674,-7.09075 -16.023154,-15.8723 -17.90853,-12.51635 -24.902216,-21.21786 -24.968098,-31.06405 -0.06736,-10.05892 5.714928,-17.47471 23.405788,-30.01754 7.0704,-5.01314 13.91949,-10.17902 15.22026,-11.47982 3.584904,-3.58496 2.886094,-8.48132 -2.90805,-20.37881 -13.05789,-26.81293 -13.36631,-39.97446 -1.13264,-48.32497 5.873074,-4.008865 10.970804,-5.147087 29.865764,-6.668371 17.11616,-1.377956 20.77039,-2.402624 21.92155,-6.146144 0.3796,-1.234494 1.30884,-10.031851 2.06517,-19.549611 2.25787,-28.415422 7.82697,-36.555283 24.97819,-36.508259 8.14122,0.02234 10.3338,0.661341 23.65432,6.893926 17.99966,8.421991 20.6175,9.214551 24.16347,7.316617 1.52025,-0.813626 7.53455,-8.049827 13.36512,-16.080417 11.92114,-16.419361 16.99178,-21.0706349 25.34239,-23.2459529 12.50593,-3.257854 20.88687,2.326539 36.49684,24.3185159 9.81123,13.822329 12.76276,16.398052 17.917,15.63583 1.37437,-0.203233 9.44996,-3.630585 17.946,-7.616317 14.16749,-6.646511 16.19045,-7.246814 24.42008,-7.246814 17.21465,0 22.75063,8.147785 24.8749,36.610627 0.71383,9.560553 1.67734,18.373232 2.14205,19.583978 1.45726,3.797646 5.40841,4.869854 22.3788,6.073136 27.59702,1.956791 36.90868,7.437318 38.15424,22.456226 0.65189,7.86128 -1.73701,15.64073 -10.13631,33.00965 -5.52068,11.41595 -6.16852,16.32235 -2.62377,19.86716 1.30078,1.3008 8.14965,6.46668 15.22036,11.47982 13.56496,9.61774 18.8689,14.9169 21.7057,21.6855 5.32648,12.7112 -1.06467,23.89948 -21.98612,38.48771 -13.74096,9.58142 -17.30502,13.02597 -17.30502,16.72485 0,1.70352 3.27866,10.39225 7.28582,19.30835 10.06022,22.3848 10.71986,31.54313 2.91195,40.43573 -5.18616,5.90688 -12.79346,8.27829 -31.34845,9.77167 -19.37088,1.55917 -22.14394,2.16641 -23.77034,5.20549 -0.72433,1.35317 -1.86039,9.81466 -2.52496,18.80331 -1.39068,18.81133 -2.83043,24.94186 -7.22486,30.76501 -4.86525,6.44668 -9.70476,8.36459 -19.55107,7.74783 -6.95971,-0.4356 -11.2259,-1.8216 -24.08669,-7.8247 -8.59581,-4.01225 -16.99608,-7.29511 -18.66749,-7.29511 -3.62144,0 -6.92097,3.42296 -17.29836,17.94597 -12.52023,17.5225 -19.82554,23.11739 -30.05975,23.02207 -3.03137,-0.0279 -7.24211,-0.95973 -9.35718,-2.07003 z m 32.78207,-64.04523 c 29.49633,-5.06267 55.02528,-18.2672 76.32614,-39.47911 54.56391,-54.33667 54.87452,-142.54923 0.69632,-197.68104 -54.90067,-55.866745 -144.40771,-56.238149 -199.22081,-0.8268 -13.47685,13.62385 -19.21445,21.65074 -27.28348,38.16866 -21.94249,44.9182 -18.65106,96.38046 8.84241,138.25337 30.62397,46.64073 86.10045,70.92545 140.63942,61.56492 z M 242.1862,328.24119 C 216.01191,324.07602 194.00604,313.215 175.05404,295.10834 144.57329,265.98727 132.05188,224.83871 140.86713,182.7618 c 5.45941,-26.05879 22.53599,-52.84518 44.1557,-69.2632 10.08007,-7.65476 31.05135,-18.092755 41.82543,-20.817854 47.23409,-11.94671 95.80682,4.194296 125.45561,41.689874 13.05637,16.5117 20.74569,33.96183 24.4431,55.47186 2.31629,13.47619 2.44624,21.44407 0.56945,34.93746 -3.78388,27.20553 -16.41026,51.80399 -36.24714,70.61602 -22.91455,21.73065 -48.45615,32.34067 -79.65522,33.08849 -8.46026,0.20291 -17.11275,0.0926 -19.22786,-0.24326 z m 46.47299,-104.59746 c 27.01253,-26.96664 49.44493,-50.32883 49.84942,-51.91505 1.68145,-6.59348 -3.62524,-13.13894 -10.65186,-13.13894 -1.26335,0 -21.55009,19.25636 -45.9144,43.58299 -24.00789,23.97072 -44.46976,43.583 -45.47082,43.583 -1.00099,0 -11.44233,-9.51778 -23.20291,-21.15053 -18.07471,-17.87814 -21.97688,-21.15056 -25.22202,-21.15056 -5.93499,0 -10.59409,4.37683 -10.59409,9.95252 0,4.30802 1.76091,6.41556 24.67573,29.53436 24.90971,25.1314 30.29499,29.7196 34.89182,29.72839 1.61568,0.002 20.21593,-17.65604 51.63913,-49.02618 z"
     id="path187"
     inkscape:connector-curvature="0" />
</svg>
