<?xml version="1.0" encoding="UTF-8" standalone="no"?>
<!-- Created with Inkscape (http://www.inkscape.org/) -->

<svg
   xmlns:dc="http://purl.org/dc/elements/1.1/"
   xmlns:cc="http://creativecommons.org/ns#"
   xmlns:rdf="http://www.w3.org/1999/02/22-rdf-syntax-ns#"
   xmlns:svg="http://www.w3.org/2000/svg"
   xmlns="http://www.w3.org/2000/svg"
   xmlns:sodipodi="http://sodipodi.sourceforge.net/DTD/sodipodi-0.dtd"
   xmlns:inkscape="http://www.inkscape.org/namespaces/inkscape"
   version="1.1"
   id="svg92"
   width="820"
   height="1060"
   viewBox="0 0 820 1060"
   sodipodi:docname="location-icon.svg"
   inkscape:version="0.92.3 (2405546, 2018-03-11)">
  <metadata
     id="metadata98">
    <rdf:RDF>
      <cc:Work
         rdf:about="">
        <dc:format>image/svg+xml</dc:format>
        <dc:type
           rdf:resource="http://purl.org/dc/dcmitype/StillImage" />
        <dc:title></dc:title>
      </cc:Work>
    </rdf:RDF>
  </metadata>
  <defs
     id="defs96" />
  <sodipodi:namedview
     pagecolor="#ffffff"
     bordercolor="#666666"
     borderopacity="1"
     objecttolerance="10"
     gridtolerance="10"
     guidetolerance="10"
     inkscape:pageopacity="0"
     inkscape:pageshadow="2"
     inkscape:window-width="1920"
     inkscape:window-height="1025"
     id="namedview94"
     showgrid="false"
     inkscape:zoom="0.78679245"
     inkscape:cx="410"
     inkscape:cy="530"
     inkscape:window-x="0"
     inkscape:window-y="0"
     inkscape:window-maximized="1"
     inkscape:current-layer="svg92" />
  <path
     style="fill:#787878"
     d="M 374.50004,1014.3263 C 321.45449,1011.1724 296.79345,1008.5176 263,1002.3228 165.26451,984.40672 100.62334,950.19967 77.985314,904.41607 c -6.53527,-13.21706 -8.9713,-23.67119 -8.9713,-38.5 0,-25.01441 8.31202,-43.95919 28.45996,-64.86599 C 133.53013,763.6359 202.20988,735.07451 283,723.89663 c 8.525,-1.17949 15.88218,-2.51232 16.34928,-2.96183 0.46711,-0.44952 -33.05789,-55.19105 -74.5,-121.64785 -57.08496,-91.54178 -77.2596,-124.71376 -83.23027,-136.85071 -15.33975,-31.18202 -25.36048,-68.36233 -28.57427,-106.02017 -5.78247,-67.75659 14.23929,-139.80936 54.46377,-196 19.70851,-27.53134 46.45412,-53.91864 73.92271,-72.932347 39.28993,-27.196424 85.43442,-44.597169 134.56882,-50.744893 15.9389,-1.994292 55.4715,-1.69948 71.5,0.533208 54.6556,7.61326 100.6392,26.805991 145,60.520479 12.2986,9.347063 39.55,36.259803 49.8767,49.257013 23.2981,29.32303 43.251,67.56757 53.0959,101.77145 21.8654,75.96627 14.2178,153.97936 -21.8155,222.53897 -8.6432,16.44528 -262.7657,438.5576 -264.012,438.5394 -0.6298,-0.009 -14.1951,-21.46534 -30.1451,-47.68033 -15.95,-26.21498 -29.69426,-48.52887 -30.54276,-49.58641 -1.46397,-1.82465 -2.12752,-1.86279 -13,-0.74729 -42.0617,4.3155 -84.72689,13.16831 -116.95728,24.26805 -31.44976,10.8309 -56.73761,24.79217 -54.66915,30.1825 1.04782,2.73057 12.54358,10.38481 23.97528,15.96351 39.97142,19.50613 101.32389,32.89132 172.69391,37.6764 21.3795,1.43341 76.7581,1.41683 98.5,-0.0295 71.0238,-4.72468 133.126,-18.39815 173,-38.09057 13.3106,-6.57369 23.8078,-14.10281 23.3046,-16.71535 -0.8821,-4.58073 -23.9229,-17.1385 -47.8046,-26.05466 -16.8588,-6.29416 -41.06,-13.25684 -61.1196,-17.5841 -13.3798,-2.88629 -15.3732,-3.56637 -15.325,-5.22839 0.054,-1.86032 48.7677,-80.82079 50.5355,-81.91335 0.4882,-0.30172 7.8142,1.25508 16.28,3.45957 76.7829,19.99417 126.6597,51.38 145.0813,91.29496 8.7443,18.94655 10.3867,42.15359 4.3641,61.66508 -20.1918,65.41605 -118.5,109.58273 -270.8163,121.66893 -18.118,1.4376 -88.2835,2.7231 -102.5,1.8779 z m 67,-591.31078 c 40.6637,-10.46175 74.2355,-41.30661 88.2691,-81.09945 5.2919,-15.00555 6.6888,-23.7593 6.702,-42 0.017,-23.4629 -3.4714,-38.2597 -13.7778,-58.44329 -6.475,-12.68029 -14.1096,-22.78379 -25.5452,-33.80612 -16.3676,-15.77607 -34.2835,-25.66434 -57.6481,-31.81768 -11.4558,-3.01701 -38.4475,-3.81358 -51,-1.50509 -27.0858,4.98125 -50.35424,17.38792 -69.25547,36.92684 -22.36804,23.1227 -34.26104,50.52086 -35.87473,82.64534 -3.07774,61.27016 38.9456,116.56876 98.6932,129.87064 13.3355,2.96893 13.6823,2.99805 31.437,2.63935 13.9725,-0.28228 17.5205,-0.71445 28,-3.41054 z"
     id="path102"
     inkscape:connector-curvature="0" />
</svg>