<?xml version="1.0" encoding="UTF-8" standalone="no"?>
<!-- Created with Inkscape (http://www.inkscape.org/) -->

<svg
   xmlns:dc="http://purl.org/dc/elements/1.1/"
   xmlns:cc="http://creativecommons.org/ns#"
   xmlns:rdf="http://www.w3.org/1999/02/22-rdf-syntax-ns#"
   xmlns:svg="http://www.w3.org/2000/svg"
   xmlns="http://www.w3.org/2000/svg"
   xmlns:sodipodi="http://sodipodi.sourceforge.net/DTD/sodipodi-0.dtd"
   xmlns:inkscape="http://www.inkscape.org/namespaces/inkscape"
   version="1.1"
   id="svg350"
   width="1130.6667"
   height="1090.6667"
   viewBox="0 0 1130.6667 1090.6667"
   sodipodi:docname="taxonomy-icon.svg"
   inkscape:version="0.92.3 (2405546, 2018-03-11)">
  <metadata
     id="metadata356">
    <rdf:RDF>
      <cc:Work
         rdf:about="">
        <dc:format>image/svg+xml</dc:format>
        <dc:type
           rdf:resource="http://purl.org/dc/dcmitype/StillImage" />
        <dc:title></dc:title>
      </cc:Work>
    </rdf:RDF>
  </metadata>
  <defs
     id="defs354" />
  <sodipodi:namedview
     pagecolor="#ffffff"
     bordercolor="#666666"
     borderopacity="1"
     objecttolerance="10"
     gridtolerance="10"
     guidetolerance="10"
     inkscape:pageopacity="0"
     inkscape:pageshadow="2"
     inkscape:window-width="836"
     inkscape:window-height="666"
     id="namedview352"
     showgrid="false"
     inkscape:zoom="0.2163814"
     inkscape:cx="565.33337"
     inkscape:cy="545.33337"
     inkscape:window-x="688"
     inkscape:window-y="293"
     inkscape:window-maximized="0"
     inkscape:current-layer="svg350" />
  <g
     id="g360"
     transform="translate(4.6214704,4.6214665)">
    <path
       style="fill:#fdfdfd;stroke-width:1.33333337"
       d="M 0,545.33335 V 0 H 565.33335 1130.6667 V 545.33335 1090.6667 H 565.33335 0 Z"
       id="path364"
       inkscape:connector-curvature="0" />
    <path
       style="fill:#787878;stroke-width:1.33333337"
       d="m 55.512103,1087.2181 c -12.049991,-2.9167 -23.196591,-9.4954 -33.622636,-19.8442 -39.500346,-39.2075 -22.10847539,-105.06988 32.110535,-121.60132 7.677225,-2.3408 24.569079,-2.43922 418.666678,-2.43922 394.86903,0 410.97443,0.0943 418.66668,2.45162 26.91043,8.24672 46.3316,29.24452 51.99413,56.21502 1.07776,5.1334 1.95956,11.7334 1.95956,14.6667 0,8.7858 -3.66513,23.4442 -8.1679,32.6667 -5.3338,10.9246 -19.97155,25.7641 -31.24322,31.6738 -17.0389,8.9335 16.70699,8.2961 -433.87592,8.1954 -348.21811,-0.078 -409.823564,-0.3714 -416.487907,-1.9845 z M 1023.3592,939.99544 c -16.575,-2.98426 -31.77566,-10.9819 -42.05389,-22.12612 -3.31544,-3.59479 -36.85292,-53.63596 -74.52776,-111.20263 -37.67483,-57.56667 -69.55919,-105.79699 -70.85413,-107.17848 -2.25766,-2.40859 -2.7898,-2.4241 -12.94688,-0.37748 -31.48442,6.34397 -76.24586,8.4207 -106.97652,4.96324 C 585.16298,689.35363 474.85297,605.55714 425.87085,483.67863 407.92916,439.03568 400.48099,396.138 401.73471,344.66668 c 0.77405,-31.77894 3.18896,-50.19292 10.22934,-78.00001 C 441.46901,150.13211 529.08182,56.483923 644.00002,18.646422 675.74523,8.1941219 706.10535,2.9676558 742.09489,1.7594843 823.35958,-0.96857798 900.14911,23.399734 966.55884,72.990657 c 20.11702,15.022206 52.17076,47.101983 67.28226,67.336963 39.5814,53.00117 63.8486,114.8088 70.2598,178.9494 1.9915,19.92331 0.8641,66.98005 -2.04,85.15377 -12.2975,76.95497 -46.1024,144.53601 -98.5762,197.06816 -7.0499,7.05776 -12.818,13.4478 -12.818,14.20011 0,0.75229 29.5092,46.27777 65.576,101.16772 36.0667,54.88995 66.9749,103.21109 68.6848,107.3803 8.2953,20.22664 7.2901,41.57075 -2.9711,63.08628 -11.3252,23.74659 -36.3694,44.01022 -62.623,50.66932 -10.1821,2.58264 -27.4004,3.53644 -35.9742,1.99276 z M 798.90284,578.78008 c 69.9428,-15.15169 128.30937,-60.0997 159.97148,-123.19383 7.8952,-15.73301 15.7998,-38.76198 19.99506,-58.2529 2.62485,-12.19492 3.01337,-17.86803 3.01337,-44.00001 0,-26.14669 -0.38748,-31.79821 -3.0168,-44 -20.26408,-94.039 -89.54944,-162.75591 -183.08754,-181.58542 -12.80056,-2.5768 -19.29203,-3.04204 -42.44505,-3.04204 -23.2125,0 -29.63014,0.46217 -42.5679,3.06554 -93.81891,18.87849 -163.98404,89.07419 -183.03714,183.11687 -2.65128,13.08624 -3.05125,18.95401 -2.98414,43.77839 0.0663,24.53156 0.51086,30.67815 3.08189,42.61131 13.56273,62.95012 48.63412,114.89741 100.17395,148.37639 24.61703,15.9906 57.27451,29.01845 84,33.50964 6.96667,1.17073 14.16667,2.39209 16,2.71414 1.83333,0.32206 15.63334,0.38563 30.66667,0.1413 21.49723,-0.34939 30.08829,-1.04104 40.23615,-3.23938 z M 63.989901,650.72469 C 48.322851,648.65271 33.255365,641.19742 22.012453,629.9545 -0.40547741,607.53657 -5.8526302,574.13362 8.2129434,545.33335 13.548488,534.40844 28.187362,519.56839 39.457425,513.65948 c 16.458407,-8.62914 8.694854,-8.28672 187.875915,-8.28672 178.71325,0 170.88806,-0.33913 187.68037,8.13396 10.03053,5.06124 25.41572,20.12359 30.7049,30.0606 4.59868,8.63975 8.95536,25.38938 8.92492,34.31264 -0.0876,25.68041 -16.1181,52.83314 -37.97705,64.32622 -18.59801,9.77853 -4.37456,9.06065 -183.99981,9.28667 -88.73333,0.1116 -164.63788,-0.23403 -168.676769,-0.76816 z M 54.881735,210.62345 C 41.698276,207.17018 31.723432,201.26459 21.333334,190.76118 -1.2165431,167.96539 -6.0700042,134.93263 8.9270369,106.32364 19.135639,86.849284 40.218167,71.462917 61.333335,68.076683 72.926845,66.217437 304.04494,66.176547 316.00001,68.03163 c 5.20356,0.807441 13.13287,3.528194 19.84363,6.808867 38.51824,18.830303 52.27588,65.812843 30.20764,103.159513 -6.13142,10.37637 -18.4554,21.85341 -29.08531,27.0865 -17.10581,8.42116 -13.29872,8.21279 -148.96596,8.15371 -117.292149,-0.0511 -123.812633,-0.17925 -133.118275,-2.61677 z"
       id="path362"
       inkscape:connector-curvature="0" />
  </g>
</svg>
