<?xml version="1.0" encoding="UTF-8" standalone="no"?>
<!-- Created with Inkscape (http://www.inkscape.org/) -->

<svg
   version="1.1"
   id="svg2"
   width="430.49054"
   height="152.6683"
   viewBox="0 0 430.49054 152.6683"
   sodipodi:docname="BehaveNet - horizontal.svg"
   inkscape:version="1.1.1 (1:1.1+202109281949+c3084ef5ed)"
   xmlns:inkscape="http://www.inkscape.org/namespaces/inkscape"
   xmlns:sodipodi="http://sodipodi.sourceforge.net/DTD/sodipodi-0.dtd"
   xmlns="http://www.w3.org/2000/svg"
   xmlns:svg="http://www.w3.org/2000/svg">
  <defs
     id="defs6" />
  <sodipodi:namedview
     id="namedview4"
     pagecolor="#ffffff"
     bordercolor="#666666"
     borderopacity="1.0"
     inkscape:pageshadow="2"
     inkscape:pageopacity="0.0"
     inkscape:pagecheckerboard="0"
     showgrid="false"
     inkscape:zoom="3.1120153"
     inkscape:cx="141.70881"
     inkscape:cy="82.101138"
     inkscape:window-width="1920"
     inkscape:window-height="1015"
     inkscape:window-x="0"
     inkscape:window-y="0"
     inkscape:window-maximized="1"
     inkscape:current-layer="g969"
     fit-margin-top="10"
     fit-margin-left="10"
     fit-margin-bottom="10"
     fit-margin-right="10" />
  <g
     id="g969"
     style="display:inline"
     transform="translate(-107.80433,-2.639999)">
    <path
       style="fill:#777878;stroke-width:0.32"
       d="m 131.23595,144.77422 c -6.83264,-1.83753 -12.02794,-8.15729 -13.14501,-15.99011 -0.26154,-1.83393 -0.3337,-16.21114 -0.25849,-51.504113 0.11607,-54.465421 -0.0748,-49.925262 2.3002,-54.719998 2.11732,-4.274596 5.92325,-7.645031 10.36641,-9.180252 L 132.64,12.639999 h 34.72 34.72 l 0.0895,4.074372 0.0895,4.074372 -34.32952,0.08563 -34.32952,0.08563 -1.73519,0.96 c -2.0531,1.135889 -3.85057,3.286022 -4.88157,5.839333 l -0.74324,1.840667 -0.0929,47.999998 c -0.0662,34.185219 0.01,48.598599 0.26328,50.079859 0.63651,3.71673 2.47669,6.51864 5.42964,8.26737 l 1.44,0.85276 26.05535,0.0873 c 29.1366,0.0977 27.83035,0.19024 30.50253,-2.16191 1.81029,-1.59347 3.31598,-4.43304 3.74156,-7.05619 0.42284,-2.6062 0.44756,-74.899679 0.0272,-79.509228 -0.47753,-5.236333 -1.69824,-7.719469 -4.57991,-9.316374 -1.57762,-0.874259 -1.87194,-0.923626 -5.5067,-0.923626 -3.55505,0 -3.96166,0.06418 -5.47947,0.864855 -2.11072,1.113443 -4.07859,3.3627 -4.9415,5.648076 -1.23298,3.265479 -1.57651,6.668502 -1.57781,15.629619 l -0.001,8.38255 2.32,1.209571 c 1.60181,0.83513 3.11248,2.006333 4.88,3.783395 3.49829,3.517187 5.35612,6.810307 6.79279,12.040652 0.79979,2.911728 0.80176,11.752313 0.003,14.64256 -1.47119,5.32511 -3.30907,8.54973 -6.95604,12.20463 -4.49866,4.50843 -9.16611,6.43808 -15.68,6.48253 -5.9607,0.0407 -11.12649,-1.96043 -15.07607,-5.84013 L 145.6,110.80337 v 3.31831 3.31831 h -4.16 -4.16 V 74.239997 31.039999 h 4.16 4.16 v 22.074072 22.074073 l 2.00588,-2.005878 c 3.56883,-3.568829 8.44068,-5.853632 13.25857,-6.21801 L 163.2,66.78762 l -5e-5,-17.793811 -5e-5,-17.79381 4.08005,0.05907 4.08005,0.05907 0.0915,2.861272 0.0915,2.861273 1.88434,-1.960345 c 2.42438,-2.52215 4.68033,-3.868989 7.82975,-4.674475 3.8634,-0.988091 7.59008,-0.766071 11.54294,0.687681 1.48905,0.547631 2.42942,1.213421 4.18963,2.966288 1.94321,1.935111 2.40989,2.628339 3.24493,4.820163 1.89712,4.979594 1.84544,3.608477 1.84544,48.959998 v 41.599996 l -0.74348,2.4 c -1.96716,6.3501 -6.98963,11.40244 -12.89843,12.97512 -2.56412,0.68247 -54.65088,0.64523 -57.20214,-0.0409 z m 35.41869,-34.72678 c 2.62246,-0.90226 4.26745,-1.97364 6.08682,-3.96431 5.2621,-5.75758 6.36304,-15.646129 2.55669,-22.964049 -2.13518,-4.105027 -5.96103,-7.010396 -10.46178,-7.944748 -2.52389,-0.523959 -6.84477,-0.218643 -9.07414,0.641184 -4.27683,1.649497 -7.9453,5.728591 -9.52313,10.589103 -0.99214,3.056285 -1.08165,8.574121 -0.192,11.835376 1.7916,6.567554 6.66837,11.484524 12.3529,12.454734 2.33783,0.39902 6.06239,0.10695 8.25464,-0.64729 z"
       id="path973"
       sodipodi:nodetypes="ssscscccccccsscccsccsssssssccssscssscccccccccccsscccccccsssssscsssssssssssss"
       inkscape:label="Icon - n" />
    <path
       style="fill:#7e2b1e;stroke-width:0.32"
       d="m 157.76824,118.22001 c -3.46487,-0.75108 -6.98228,-2.65522 -9.73492,-5.26996 L 145.6,110.63863 v 3.40068 3.40068 h -4.16 -4.16 V 74.399997 31.359999 h 4.16 4.16 v 21.972498 21.972498 l 2.16,-2.063635 c 3.89303,-3.719353 7.48264,-5.445401 12.69331,-6.103523 7.3023,-0.922297 14.71942,2.030144 19.64964,7.821696 2.02883,2.383273 4.2547,6.781641 5.22286,10.320463 1.00899,3.688099 1.01104,11.33783 0.004,15.040004 -0.89778,3.30058 -2.75721,7.14961 -4.68547,9.69893 -5.0913,6.73113 -14.34816,10.04971 -22.87613,8.20108 z m 7.82057,-7.67055 c 7.40063,-1.92761 12.01975,-8.80666 12.00646,-17.880651 -0.006,-3.965379 -0.60595,-6.630477 -2.15835,-9.584688 -2.31441,-4.404323 -5.98037,-7.08046 -11.06893,-8.080275 -5.37671,-1.056432 -10.08367,0.387722 -13.92925,4.273667 -3.51822,3.555146 -5.15874,7.777494 -5.15874,13.277485 0,8.827002 4.78503,16.072402 11.87348,17.978592 2.28972,0.61574 6.10473,0.62292 8.43533,0.0159 z"
       id="path971"
       sodipodi:nodetypes="cscccccccccccssssssccscsssssss"
       inkscape:label="Icon - b" />
    <path
       id="path1130"
       style="fill:#777878;stroke-width:0.32"
       d="m 491.49485,104.88021 c -5.11776,-1.1725 -9.02564,-5.09745 -10.67812,-10.72474 -0.89231,-3.03865 -1.24633,-7.90463 -0.84225,-11.57678 1.2558,-11.41251 7.34203,-17.77404 16.4606,-17.20515 3.40138,0.21221 5.77949,1.30259 8.19089,3.75559 3.28186,3.33849 5.00582,8.02144 5.33284,14.48616 l 0.19021,3.76 h -12.20709 c -11.80654,0 -12.20708,0.0201 -12.20708,0.61185 0,1.37105 0.95376,5.46185 1.588,6.81114 1.47682,3.14179 4.1092,4.80516 7.67636,4.85059 1.1526,0.0147 2.66362,-0.16927 3.35782,-0.40878 2.29789,-0.79282 4.51579,-3.32338 5.42065,-6.1848 0.1506,-0.47626 0.58909,-0.56 2.93255,-0.56 h 2.75547 l -0.22431,1.04 c -1.11564,5.17245 -4.57151,9.33775 -8.96367,10.80376 -2.4592,0.82083 -6.48064,1.06861 -8.78287,0.54116 z m 12.63446,-24.14492 c -0.8186,-6.07704 -3.42915,-9.23635 -7.9272,-9.59356 -2.41114,-0.19148 -4.19659,0.25284 -5.85794,1.45777 -2.18974,1.58815 -3.85682,4.70043 -4.44361,8.29579 l -0.22197,1.36 h 9.32774 9.32774 z m 17.04251,23.48464 c -1.65203,-0.61975 -2.15361,-1.09318 -2.92898,-2.76464 -0.64049,-1.38072 -0.67192,-2.02296 -0.76345,-15.6 l -0.0955,-14.16 h -2.2245 -2.22454 v -2.72 -2.72 h 2.24 2.24 v -5.12 -5.12 h 2.88 2.88 v 5.12 5.12 h 2.56 2.56 v 2.72 2.72 h -2.56 -2.56 v 12.90422 12.90422 l 0.79754,0.74925 c 0.57507,0.54025 1.28916,0.79002 2.56,0.89541 l 1.76246,0.14615 v 2.34149 c 0,1.28782 -0.14128,2.42881 -0.31396,2.53553 -0.73905,0.45675 -5.62789,0.49149 -6.80907,0.0484 z M 438.05485,78.09529 v -25.92 h 3.64446 3.64446 l 9.75997,18 c 5.36799,9.9 10.45998,19.296 11.31555,20.88 l 1.55556,2.88 0.0823,-20.88 0.0823,-20.88 h 3.03769 3.03768 v 25.92 25.92 h -3.45152 -3.45151 L 455.80333,83.2325 c -6.32966,-11.43053 -11.61648,-20.79053 -11.74848,-20.8 -0.132,-0.009 -0.24,9.34279 -0.24,20.78279 v 20.8 h -2.88 -2.88 z"
       sodipodi:nodetypes="sssssscssssssscssssssscccsssscccccccccccccccccccccsscssssccccsscccccccccscscccc"
       inkscape:label="Text - Net" />
    <path
       d="m 280.38638,104.75808 c -3.14278,-0.98219 -6.32281,-3.72109 -7.87355,-6.781337 -1.86641,-3.68317 -2.29876,-5.91149 -2.28844,-11.79442 0.008,-4.67959 0.11123,-5.79582 0.73701,-7.98558 2.29987,-8.04775 7.6199,-12.63705 14.66494,-12.65062 6.92834,-0.0133 12.14624,5.08875 13.90478,13.5962 0.32743,1.584 0.59721,4.14 0.59952,5.68 l 0.004,2.8 h -12.15999 c -9.51596,0 -12.15948,0.087 -12.15759,0.4 10e-4,0.22 0.14933,1.30527 0.32888,2.41172 0.96668,5.95698 3.61653,8.97927 8.3617,9.53697 3.94071,0.463147 7.82842,-1.90543 9.10744,-5.54869 l 0.58979,-1.68 h 2.67031 2.67032 l -0.22432,1.04 c -1.12643,5.22254 -4.53809,9.305577 -8.99907,10.770017 -2.40015,0.78791 -7.7206,0.89808 -9.93593,0.20574 z m 13.8826,-24.140897 c -0.44589,-4.26603 -2.99622,-8.17346 -5.8523,-8.96648 -6.2104,-1.72438 -11.1308,2.08641 -12.46192,9.65162 l -0.21114,1.2 h 9.3612 9.3612 z m 50.43374,24.075827 c -1.92846,-0.68285 -4.33481,-2.96847 -5.24441,-4.981267 -0.66372,-1.4687 -0.76283,-2.1702 -0.75866,-5.36942 0.005,-4.21163 0.47003,-5.64982 2.57884,-7.98403 2.19636,-2.4311 4.66111,-3.30205 12.29636,-4.34505 4.96451,-0.67816 5.95788,-1.06047 6.57152,-2.52912 1.02422,-2.45133 0.14056,-5.50092 -2.11291,-7.29177 -1.56874,-1.24669 -4.50282,-1.78711 -6.93403,-1.27716 -3.10999,0.65233 -4.86928,2.36375 -5.60239,5.44997 l -0.39365,1.65716 h -2.52549 -2.5255 l 0.21583,-1.62704 c 0.87544,-6.59934 5.03584,-10.30819 12.07476,-10.76422 6.36981,-0.41268 10.66976,1.606 12.71644,5.96996 l 0.83542,1.7813 0.16,12.90622 c 0.15417,12.43597 0.18332,12.92364 0.8,13.38437 0.41381,0.30917 1.06411,0.423757 1.84,0.32423 l 1.2,-0.15392 v 2.217467 c 0,2.11772 -0.0396,2.2338 -0.88,2.5805 -1.29714,0.53511 -4.23876,0.44647 -5.41477,-0.16316 -1.18304,-0.61328 -2.20841,-1.94163 -2.5282,-3.27523 -0.36915,-1.539467 -0.46952,-1.542477 -2.01488,-0.0605 -2.03363,1.95024 -3.22741,2.7193 -5.35987,3.45298 -2.24045,0.77083 -6.949,0.82198 -8.99441,0.0977 z m 10.00673,-5.362617 c 2.17443,-0.98686 3.67513,-2.36489 4.77388,-4.38365 0.82943,-1.52393 0.92826,-2.04514 1.06605,-5.62203 0.0835,-2.16832 0.078,-3.94239 -0.0122,-3.94239 -0.0903,0 -0.66408,0.2089 -1.27515,0.46422 -0.61107,0.25532 -2.87074,0.76445 -5.0215,1.13141 -7.95263,1.35685 -9.95657,2.79128 -9.9386,7.11409 0.008,1.84418 0.79358,3.90439 1.84659,4.84071 1.8359,1.632437 5.46846,1.801167 8.56098,0.39764 z m 56.55722,5.252047 c -4.61284,-1.64007 -7.82299,-5.585807 -9.26846,-11.392257 -0.83831,-3.36752 -0.7459,-11.27779 0.1716,-14.68786 2.31774,-8.6144 8.22149,-13.45054 15.7178,-12.87546 3.31896,0.25462 5.60675,1.29922 7.93048,3.62107 3.47363,3.47081 5.16441,7.96979 5.43216,14.45439 l 0.16186,3.92 H 419.2196 407.02709 l 0.18759,1.52 c 0.27925,2.2628 1.05243,5.17272 1.71665,6.46081 1.83,3.54882 6.21348,5.251027 10.39324,4.03595 2.44266,-0.71011 5.08507,-3.24032 5.67071,-5.42995 l 0.39231,-1.46681 h 2.65363 c 3.05516,0 3.00731,-0.0697 2.00175,2.91528 -1.55925,4.628547 -4.70766,7.822907 -8.9262,9.056477 -2.45227,0.71708 -7.65871,0.6475 -9.8501,-0.13164 z m 14.20494,-24.176727 c -0.37697,-4.03692 -2.87401,-7.81219 -5.80748,-8.78033 -1.5411,-0.5086 -5.43605,-0.28015 -6.72928,0.39471 -2.88601,1.50602 -4.89852,4.82871 -5.71904,9.44223 l -0.18496,1.04 h 9.31827 9.31828 z m -194.77676,-1.91779 v -25.7744 l 12.08,0.0944 12.08,0.0944 1.92,0.89585 c 2.51411,1.17304 4.68963,3.3434 5.80261,5.78883 0.78032,1.71449 0.89108,2.34945 0.89928,5.15532 0.0141,4.8215 -1.43286,8.19737 -4.52574,10.55896 l -1.42111,1.0851 1.359,0.69331 c 2.19573,1.12018 4.57884,3.60424 5.59448,5.83147 0.78478,1.72098 0.92508,2.47829 1.03395,5.58112 0.10451,2.97843 0.0117,3.96626 -0.545,5.79897 -1.5777,5.19422 -5.53967,8.570497 -11.35039,9.672487 -0.86594,0.16422 -6.37878,0.29858 -12.25076,0.29858 h -10.67632 z m 21.3958,19.67923 c 5.27331,-0.85567 7.45065,-3.54774 7.49337,-9.26483 0.0364,-4.87336 -1.53004,-7.01249 -6.00917,-8.20605 -1.11699,-0.29764 -3.89433,-0.4275 -9.2,-0.43015 l -7.6,-0.004 v 8.90667 c 0,4.89867 0.096,9.00267 0.21333,9.12 0.34196,0.34196 12.86687,0.24091 15.10247,-0.12184 z m 1.0042,-24.37128 c 1.72881,-0.79558 2.83215,-1.78967 3.60028,-3.2438 0.58032,-1.09859 0.70262,-1.85822 0.7035,-4.36975 10e-4,-3.2402 -0.33483,-4.29881 -1.79775,-5.66472 -1.78298,-1.66477 -2.75439,-1.83636 -11.06603,-1.95474 l -7.76,-0.11053 v 8.05038 8.05038 l 7.6,-0.12091 c 6.12199,-0.0974 7.81781,-0.22113 8.72,-0.63631 z m 52.8,4.70645 v -25.76 h 2.72 2.72 v 9.28 c 0,5.104 0.108,9.26929 0.24,9.2562 0.132,-0.0131 0.82299,-0.7691 1.53554,-1.68 2.63112,-3.36355 7.50877,-4.84457 11.82389,-3.59013 3.23195,0.93955 4.94951,2.38452 6.49489,5.46408 1.19099,2.37336 1.34568,4.54924 1.34568,18.92862 v 13.861227 h -2.69608 -2.69608 l -0.12983,-13.839997 c -0.14149,-15.08326 -0.18456,-15.45916 -1.99097,-17.37451 -1.52608,-1.61812 -4.54191,-2.18618 -7.26885,-1.36916 -2.95527,0.88542 -5.66766,4.70246 -6.32695,8.90367 -0.17953,1.144 -0.3275,6.94 -0.32883,12.88 l -0.002,10.799997 h -2.72001 -2.72 z m 75.46552,24.079997 c -0.26389,-0.924 -2.14816,-6.719997 -4.18727,-12.879997 -2.03911,-6.16 -4.57024,-13.8329 -5.62474,-17.05088 l -1.91727,-5.85089 3.24206,0.0909 3.24206,0.0909 3.61156,12.48 c 1.98636,6.864 3.93346,13.668 4.32689,15.12 0.39344,1.452 0.78865,2.63918 0.87826,2.63818 0.0896,-9.6e-4 2.17893,-6.83884 4.64293,-15.1952 l 4.48,-15.19338 3.08146,-0.005 3.08146,-0.005 -5.7095,17.36 c -3.14022,9.548 -5.89031,17.971997 -6.11132,18.719997 l -0.40182,1.36 h -3.07748 -3.07748 z m -100.42552,2.44699 c -3.51553,-0.94058 -6.30587,-3.17416 -8.35386,-6.686987 -3.80074,-6.51925 -3.55018,-18.8063 0.52204,-25.6 1.66782,-2.78244 3.50833,-4.51741 6.21522,-5.85886 2.35361,-1.16637 2.43162,-1.18104 6.24,-1.17359 3.28453,0.006 4.08249,0.11174 5.37946,0.70986 3.36331,1.55107 6.69637,5.69229 8.06278,10.01775 0.87244,2.76176 1.62475,8.73623 1.3108,10.40973 l -0.20545,1.09511 h -12.03108 -12.03108 l 0.19557,1.84 c 0.45211,4.25354 2.08772,7.46237 4.53471,8.8964 1.80897,1.06013 5.12167,1.410537 7.37379,0.77999 2.4995,-0.69982 4.75262,-3.12912 5.70993,-6.15639 0.15127,-0.47837 0.59412,-0.56 3.03816,-0.56 h 2.86108 l -0.43935,1.66549 c -1.49374,5.662527 -5.46788,9.688557 -10.63847,10.777407 -2.29161,0.48258 -5.60734,0.41583 -7.74425,-0.15591 z m 13.27446,-24.046987 c -0.81869,-6.07766 -3.41835,-9.17345 -8.04408,-9.57926 -4.9669,-0.43574 -9.24109,3.68221 -9.9391,9.57579 l -0.18043,1.52347 h 9.18418 9.18418 z M 345.47,105.08388 c -2.07513,-0.55778 -3.99557,-1.9554 -5.2508,-3.82134 -1.41274,-2.100077 -1.81544,-3.694287 -1.78848,-7.080217 0.0381,-4.78203 1.72362,-7.9839 5.1985,-9.87516 2.23387,-1.21583 2.89675,-1.38306 9.08343,-2.29161 2.95779,-0.43437 5.6504,-0.93566 5.98359,-1.11397 1.12561,-0.60241 1.59861,-1.66854 1.59861,-3.60321 0,-4.10258 -2.51547,-6.31852 -7.16775,-6.31426 -4.5329,0.004 -6.71376,1.75068 -7.68961,6.15821 -0.19301,0.87179 -0.21908,0.88 -2.79432,0.88 h -2.59949 l 0.20794,-1.98949 c 0.25889,-2.47695 1.64589,-5.51184 3.2539,-7.11984 0.66694,-0.66695 2.16138,-1.66219 3.32098,-2.21165 2.0594,-0.97582 2.21608,-0.99902 6.74835,-0.99902 4.44928,0 4.72297,0.0383 6.65863,0.93206 2.42919,1.12163 4.22453,3.03332 5.24117,5.58087 0.69702,1.74659 0.72494,2.22461 0.83439,14.28286 0.0732,8.0645 0.23186,12.61871 0.44871,12.88 0.1845,0.22232 0.96583,0.40421 1.73628,0.40421 h 1.40082 v 2.384957 2.38496 l -1.2,0.33325 c -1.71652,0.47671 -3.39159,0.41504 -4.87765,-0.17957 -1.4624,-0.58513 -2.31683,-1.62178 -2.87128,-3.4836 l -0.38119,-1.279997 -1.53653,1.483997 c -0.84509,0.8162 -2.16581,1.85271 -2.93494,2.30336 -2.87137,1.6824 -7.30134,2.24711 -10.62326,1.3542 z m 8.62687,-5.664757 c 2.2798,-0.85298 4.46633,-2.828 5.44334,-4.9168 0.64451,-1.37792 0.74882,-2.09968 0.75151,-5.2 0.002,-1.98 -0.0783,-3.6 -0.17791,-3.6 -0.0996,0 -0.46126,0.14998 -0.80377,0.33328 -0.3425,0.1833 -2.60103,0.68196 -5.01896,1.10813 -5.37363,0.94714 -7.05202,1.50174 -8.33207,2.75323 -1.3014,1.27236 -1.79106,2.83028 -1.5235,4.84725 0.30354,2.28824 1.24524,3.94968 2.66287,4.69813 1.65499,0.873777 4.62741,0.863907 6.99849,-0.0232 z m 58.78216,5.788947 c -4.95655,-0.98003 -8.87053,-4.9488 -10.71574,-10.865747 -0.66881,-2.14466 -0.74804,-3.01281 -0.74465,-8.16 0.003,-4.56191 0.12391,-6.19264 0.58131,-7.84 1.52228,-5.48247 4.68596,-9.68039 8.74382,-11.60226 2.09226,-0.99094 2.36426,-1.03774 6.03108,-1.03774 3.5812,0 3.9662,0.062 5.71246,0.91942 2.63026,1.29151 4.99581,3.7772 6.55028,6.88293 1.64169,3.28 2.39024,6.64624 2.42775,10.91765 l 0.0295,3.36 -12.1209,0.0839 -12.12089,0.0839 0.21612,1.91028 c 0.47332,4.18361 2.17876,7.45334 4.64321,8.90217 1.30986,0.77006 1.77965,0.85977 4.50246,0.85977 2.32497,0 3.28854,-0.13568 4.09672,-0.57686 1.71346,-0.93538 3.50052,-3.00882 4.06938,-4.72151 l 0.52533,-1.58163 h 2.85429 c 1.56985,0 2.85428,0.0459 2.85428,0.10192 0,0.57976 -1.23489,3.98017 -1.98567,5.46778 -2.76448,5.477547 -9.27167,8.256097 -16.15015,6.896047 z M 425.4194,80.667953 c -0.68448,-5.47844 -3.41817,-8.74104 -7.75427,-9.25458 -4.58036,-0.54248 -8.41781,2.60093 -9.83975,8.06014 -0.86992,3.33985 -1.75988,3.02881 8.66634,3.02881 h 9.15687 z m -194.72455,-2.16563 v -26.08 h 10.86425 c 6.71997,0 11.51111,0.13534 12.56,0.35479 3.82777,0.80084 6.92136,3.21076 8.53249,6.64681 0.7645,1.63045 0.84326,2.15765 0.84326,5.64513 0,3.69904 -0.0402,3.92844 -1.04772,5.97494 -0.68263,1.38662 -1.65333,2.68171 -2.78569,3.71663 l -1.73797,1.5884 1.89485,1.16957 c 2.96963,1.83296 4.91808,4.5908 5.75507,8.14573 0.49638,2.10824 0.26528,6.55472 -0.46328,8.91376 -0.79707,2.58085 -2.93244,5.445277 -5.23299,7.019617 -3.74997,2.56623 -6.34006,2.96131 -19.50227,2.97474 l -9.68,0.01 z m 23.15329,19.1426 c 3.74703,-1.05136 5.64894,-3.98956 5.64492,-8.72068 -0.003,-2.98964 -0.49842,-4.44633 -2.03753,-5.98544 -2.14582,-2.14583 -3.51233,-2.42749 -12.60068,-2.59721 l -7.76,-0.14491 v 8.99282 8.99282 h 7.419 c 5.97322,0 7.79225,-0.10473 9.33429,-0.5374 z m -1.07783,-23.90022 c 3.13188,-1.19396 4.46673,-3.4277 4.47751,-7.49266 0.008,-2.973 -0.41218,-4.27593 -1.7981,-5.57729 -1.74511,-1.63862 -3.01876,-1.85243 -11.03511,-1.85243 h -7.31976 v 7.87086 7.87086 l 7.12,-0.13605 c 5.7017,-0.10895 7.40594,-0.24506 8.55546,-0.68329 z m 52.95662,30.450147 c -0.0866,-0.22689 -0.12024,-11.932527 -0.0748,-26.012527 l 0.0827,-25.6 2.96,-0.092 2.96,-0.092 v 9.31024 9.31025 l 1.74975,-1.88994 c 2.39801,-2.59013 4.68366,-3.61252 8.09287,-3.62002 2.83119,-0.006 5.1014,0.62779 6.79739,1.89831 1.63476,1.22466 2.16267,1.89911 3.29926,4.21517 l 1.02074,2.08 0.0917,15.45263 0.0917,15.452627 -2.81168,-0.0926 -2.81169,-0.0926 -0.16,-14.239997 c -0.13695,-12.18885 -0.2344,-14.40348 -0.67649,-15.37494 -1.5321,-3.36666 -6.16072,-4.35745 -9.95866,-2.13171 -1.59935,0.93729 -2.83434,2.55892 -3.85799,5.06584 -0.67089,1.643 -0.70999,2.28512 -0.86476,14.20081 l -0.16213,12.479927 -2.80524,0.0925 c -2.06385,0.0681 -2.84684,-0.0165 -2.96268,-0.32 z m 76.05773,-0.17253 c -0.16099,-0.308 -1.04097,-2.864 -1.95552,-5.679997 -0.91454,-2.816 -3.59589,-10.97636 -5.95855,-18.13414 -2.36266,-7.15778 -4.29574,-13.16978 -4.29574,-13.36 0,-0.22467 1.11731,-0.34586 3.18874,-0.34586 2.71832,0 3.2295,0.0826 3.46501,0.56 0.15195,0.308 2.13702,7.0752 4.41126,15.03822 2.27424,7.96302 4.22292,14.47902 4.3304,14.48 0.10747,9.6e-4 0.43012,-0.82622 0.717,-1.83822 0.28687,-1.012 2.28457,-7.78 4.43931,-15.04 l 3.91773,-13.2 h 3.12528 c 1.7189,0 3.12527,0.10553 3.12527,0.23451 0,0.36795 -11.88559,36.658277 -12.21152,37.285487 -0.24412,0.4698 -0.75126,0.56 -3.14848,0.56 -2.39657,0 -2.9047,-0.0903 -3.15019,-0.56 z"
       style="display:inline;fill:#7e2b1e;fill-opacity:1;stroke-width:0.32"
       id="path2323"
       inkscape:label="Text - Behave" />
  </g>
</svg>
